<svg xmlns="http://www.w3.org/2000/svg" xmlns:xlink="http://www.w3.org/1999/xlink" width="500" zoomAndPan="magnify" viewBox="0 0 375 374.999991" height="500" preserveAspectRatio="xMidYMid meet" version="1.0"><defs><clipPath id="ec87442ccf"><path d="M 72.355469 18 L 302.605469 18 L 302.605469 312 L 72.355469 312 Z M 72.355469 18 " clip-rule="nonzero"/></clipPath><clipPath id="c619cab79a"><path d="M 139 176 L 302.605469 176 L 302.605469 279 L 139 279 Z M 139 176 " clip-rule="nonzero"/></clipPath><clipPath id="58894668e8"><path d="M 139 251 L 302.605469 251 L 302.605469 353 L 139 353 Z M 139 251 " clip-rule="nonzero"/></clipPath></defs><g clip-path="url(#ec87442ccf)"><path fill="#9333ea" d="M 90.902344 302.796875 L 107.519531 311.375 L 107.519531 103.496094 L 188.996094 58.363281 L 204.757812 67.261719 L 267.476562 102.425781 L 267.476562 118.828125 L 254.503906 125.6875 L 202.933594 153.242188 L 187.390625 161.496094 L 164.339844 149.597656 L 153.511719 144.128906 L 139.253906 136.730469 L 139.253906 176.292969 L 154.15625 183.902344 L 187.605469 201.273438 L 203.257812 192.910156 L 254.074219 165.785156 L 290.953125 146.167969 L 302.640625 139.949219 L 302.640625 81.734375 L 204.863281 26.949219 L 189.105469 18.160156 L 72.355469 82.804688 L 72.355469 293.257812 L 90.792969 302.796875 Z M 90.902344 302.796875 " fill-opacity="1" fill-rule="nonzero"/></g><g clip-path="url(#c619cab79a)"><path fill="#9333ea" d="M 302.640625 176.933594 L 287.953125 184.761719 L 191.785156 236.113281 L 187.390625 238.472656 L 169.058594 229.039062 L 139.253906 213.601562 L 139.253906 253.160156 L 187.605469 278.140625 L 192 275.78125 L 302.640625 216.816406 Z M 302.640625 176.933594 " fill-opacity="1" fill-rule="nonzero"/></g><g clip-path="url(#58894668e8)"><path fill="#9333ea" d="M 139.253906 288.21875 L 139.253906 327.777344 L 187.605469 352.757812 L 302.640625 291.433594 L 302.640625 251.550781 L 187.390625 313.089844 Z M 139.253906 288.21875 " fill-opacity="1" fill-rule="nonzero"/></g></svg>